{
  "accessors": [
    {
      "bufferView": 2,
      "componentType": 5126,
      "count": 2975,
      "max": [
        9.401089668273926,
        0.3602690100669861,
        3.1174490451812744
      ],
      "min": [
        -8.765646934509277,
        -0.7513489723205566,
        -0.2620280086994171
      ],
      "type": "VEC3"
    },
    {
      "bufferView": 2,
      "byteOffset": 35700,
      "componentType": 5126,
      "count": 2975,
      "max": [
        1.0,
        1.0,
        1.0
      ],
      "min": [
        -0.9990384578704834,
        -1.0,
        -0.9999963641166687
      ],
      "type": "VEC3"
    },
    {
      "bufferView": 1,
      "componentType": 5126,
      "count": 2975,
      "max": [
        0.9960939884185791,
        0.9960290193557739
      ],
      "min": [
        -0.7565010190010071,
        0.0
      ],
      "type": "VEC2"
    },
    {
      "bufferView": 0,
      "componentType": 5125,
      "count": 9300,
      "type": "SCALAR"
    },
    {
      "bufferView": 2,
      "byteOffset": 71400,
      "componentType": 5126,
      "count": 2606,
      "max": [
        7.188684940338135,
        0.521120011806488,
        3.076931953430176
      ],
      "min": [
        -4.465078830718994,
        -0.3590199947357178,
        -1.173977017402649
      ],
      "type": "VEC3"
    },
    {
      "bufferView": 2,
      "byteOffset": 102672,
      "componentType": 5126,
      "count": 2606,
      "max": [
        1.0,
        0.9999023675918579,
        1.0
      ],
      "min": [
        -1.0,
        -0.9999440908432007,
        -1.0
      ],
      "type": "VEC3"
    },
    {
      "bufferView": 1,
      "byteOffset": 23800,
      "componentType": 5126,
      "count": 2606,
      "max": [
        0.995078980922699,
        0.9950910210609436
      ],
      "min": [
        -0.9667609930038452,
        0.0039059999398887157
      ],
      "type": "VEC2"
    },
    {
      "bufferView": 0,
      "byteOffset": 37200,
      "componentType": 5125,
      "count": 8616,
      "type": "SCALAR"
    },
    {
      "bufferView": 2,
      "byteOffset": 133944,
      "componentType": 5126,
      "count": 2418,
      "max": [
        4.731105804443359,
        0.4097929894924164,
        3.04797101020813
      ],
      "min": [
        -9.894465446472168,
        -0.5410749912261963,
        0.15662500262260437
      ],
      "type": "VEC3"
    },
    {
      "bufferView": 2,
      "byteOffset": 162960,
      "componentType": 5126,
      "count": 2418,
      "max": [
        0.9907014966011047,
        1.0,
        1.0
      ],
      "min": [
        -0.998394250869751,
        -1.0,
        -0.9998255372047424
      ],
      "type": "VEC3"
    },
    {
      "bufferView": 1,
      "byteOffset": 44648,
      "componentType": 5126,
      "count": 2418,
      "max": [
        0.9949889779090881,
        0.9957050085067749
      ],
      "min": [
        -0.9960939884185791,
        0.0039059999398887157
      ],
      "type": "VEC2"
    },
    {
      "bufferView": 0,
      "byteOffset": 71664,
      "componentType": 5125,
      "count": 8262,
      "type": "SCALAR"
    },
    {
      "bufferView": 2,
      "byteOffset": 191976,
      "componentType": 5126,
      "count": 2287,
      "max": [
        10.0,
        0.36728501319885254,
        3.0683040618896484
      ],
      "min": [
        -9.882098197937012,
        -0.36728501319885254,
        0.03942900151014328
      ],
      "type": "VEC3"
    },
    {
      "bufferView": 2,
      "byteOffset": 219420,
      "componentType": 5126,
      "count": 2287,
      "max": [
        1.0,
        1.0,
        1.0
      ],
      "min": [
        -1.0,
        -1.0,
        -1.0
      ],
      "type": "VEC3"
    },
    {
      "bufferView": 1,
      "byteOffset": 63992,
      "componentType": 5126,
      "count": 2287,
      "max": [
        0.9874820113182068,
        0.9961150288581848
      ],
      "min": [
        -0.9960939884185791,
        0.0039059999398887157
      ],
      "type": "VEC2"
    },
    {
      "bufferView": 0,
      "byteOffset": 104712,
      "componentType": 5125,
      "count": 8946,
      "type": "SCALAR"
    },
    {
      "bufferView": 2,
      "byteOffset": 246864,
      "componentType": 5126,
      "count": 2272,
      "max": [
        1.1720579862594604,
        0.4182870090007782,
        2.8199520111083984
      ],
      "min": [
        -4.391702175140381,
        -0.43553200364112854,
        1.18477201461792
      ],
      "type": "VEC3"
    },
    {
      "bufferView": 2,
      "byteOffset": 274128,
      "componentType": 5126,
      "count": 2272,
      "max": [
        0.999995768070221,
        1.0,
        0.9999961256980896
      ],
      "min": [
        -1.0,
        -1.0,
        -1.0
      ],
      "type": "VEC3"
    },
    {
      "bufferView": 1,
      "byteOffset": 82288,
      "componentType": 5126,
      "count": 2272,
      "max": [
        0.9669910073280334,
        0.9939820170402527
      ],
      "min": [
        0.028826000168919563,
        0.0039059999398887157
      ],
      "type": "VEC2"
    },
    {
      "bufferView": 0,
      "byteOffset": 140496,
      "componentType": 5125,
      "count": 8760,
      "type": "SCALAR"
    },
    {
      "bufferView": 2,
      "byteOffset": 301392,
      "componentType": 5126,
      "count": 2520,
      "max": [
        1.8902980089187622,
        0.3059360086917877,
        1.753952980041504
      ],
      "min": [
        -1.330399990081787,
        -0.3059360086917877,
        -2.648451089859009
      ],
      "type": "VEC3"
    },
    {
      "bufferView": 2,
      "byteOffset": 331632,
      "componentType": 5126,
      "count": 2520,
      "max": [
        0.9929974675178528,
        1.0,
        0.9826322197914124
      ],
      "min": [
        -0.9647753834724426,
        -1.0,
        -0.987501859664917
      ],
      "type": "VEC3"
    },
    {
      "bufferView": 1,
      "byteOffset": 100464,
      "componentType": 5126,
      "count": 2520,
      "max": [
        0.9790859818458557,
        0.9925529956817627
      ],
      "min": [
        -0.9960939884185791,
        0.0039059999398887157
      ],
      "type": "VEC2"
    },
    {
      "bufferView": 0,
      "byteOffset": 175536,
      "componentType": 5125,
      "count": 10008,
      "type": "SCALAR"
    }
  ],
  "asset": {
    "extras": {
      "author": "jeferson (https://sketchfab.com/djotagame)",
      "license": "CC-BY-4.0 (http://creativecommons.org/licenses/by/4.0/)",
      "source": "https://sketchfab.com/3d-models/ak-47-f571c59114a749d5a9f0cef4606c6ec8",
      "title": "Ak 47"
    },
    "generator": "Sketchfab-12.65.0",
    "version": "2.0"
  },
  "bufferViews": [
    {
      "buffer": 0,
      "byteLength": 215568,
      "name": "floatBufferViews",
      "target": 34963
    },
    {
      "buffer": 0,
      "byteLength": 120624,
      "byteOffset": 215568,
      "byteStride": 8,
      "name": "floatBufferViews",
      "target": 34962
    },
    {
      "buffer": 0,
      "byteLength": 361872,
      "byteOffset": 336192,
      "byteStride": 12,
      "name": "floatBufferViews",
      "target": 34962
    }
  ],
  "buffers": [
    {
      "byteLength": 698064,
      "uri": "scene.bin"
    }
  ],
  "images": [
    {
      "uri": "textures/mat0_c.jpg_baseColor.jpeg"
    }
  ],
  "materials": [
    {
      "doubleSided": true,
      "name": "mat0_c.jpg",
      "pbrMetallicRoughness": {
        "baseColorTexture": {
          "index": 0
        },
        "metallicFactor": 0.8797637195121951,
        "roughnessFactor": 0.6
      }
    }
  ],
  "meshes": [
    {
      "name": "Object_0",
      "primitives": [
        {
          "attributes": {
            "NORMAL": 1,
            "POSITION": 0,
            "TEXCOORD_0": 2
          },
          "indices": 3,
          "material": 0,
          "mode": 4
        }
      ]
    },
    {
      "name": "Object_1",
      "primitives": [
        {
          "attributes": {
            "NORMAL": 5,
            "POSITION": 4,
            "TEXCOORD_0": 6
          },
          "indices": 7,
          "material": 0,
          "mode": 4
        }
      ]
    },
    {
      "name": "Object_2",
      "primitives": [
        {
          "attributes": {
            "NORMAL": 9,
            "POSITION": 8,
            "TEXCOORD_0": 10
          },
          "indices": 11,
          "material": 0,
          "mode": 4
        }
      ]
    },
    {
      "name": "Object_3",
      "primitives": [
        {
          "attributes": {
            "NORMAL": 13,
            "POSITION": 12,
            "TEXCOORD_0": 14
          },
          "indices": 15,
          "material": 0,
          "mode": 4
        }
      ]
    },
    {
      "name": "Object_4",
      "primitives": [
        {
          "attributes": {
            "NORMAL": 17,
            "POSITION": 16,
            "TEXCOORD_0": 18
          },
          "indices": 19,
          "material": 0,
          "mode": 4
        }
      ]
    },
    {
      "name": "Object_5",
      "primitives": [
        {
          "attributes": {
            "NORMAL": 21,
            "POSITION": 20,
            "TEXCOORD_0": 22
          },
          "indices": 23,
          "material": 0,
          "mode": 4
        }
      ]
    }
  ],
  "nodes": [
    {
      "children": [
        1
      ],
      "matrix": [
        1.0,
        0.0,
        0.0,
        0.0,
        0.0,
        2.220446049250313e-16,
        -1.0,
        0.0,
        0.0,
        1.0,
        2.220446049250313e-16,
        0.0,
        0.0,
        0.0,
        0.0,
        1.0
      ],
      "name": "Sketchfab_model"
    },
    {
      "children": [
        2,
        3,
        4,
        5,
        6,
        7
      ],
      "name": "ak 47out.obj.cleaner.materialmerger.gles"
    },
    {
      "mesh": 0,
      "name": "Object_2"
    },
    {
      "mesh": 1,
      "name": "Object_3"
    },
    {
      "mesh": 2,
      "name": "Object_4"
    },
    {
      "mesh": 3,
      "name": "Object_5"
    },
    {
      "mesh": 4,
      "name": "Object_6"
    },
    {
      "mesh": 5,
      "name": "Object_7"
    }
  ],
  "samplers": [
    {
      "magFilter": 9729,
      "minFilter": 9987,
      "wrapS": 10497,
      "wrapT": 10497
    }
  ],
  "scene": 0,
  "scenes": [
    {
      "name": "Sketchfab_Scene",
      "nodes": [
        0
      ]
    }
  ],
  "textures": [
    {
      "sampler": 0,
      "source": 0
    }
  ]
}
